<mxfile host="app.diagrams.net" agent="Mozilla/5.0 (Windows NT 10.0; Win64; x64) AppleWebKit/537.36 (KHTML, like Gecko) Chrome/127.0.0.0 Safari/537.36" version="24.7.6">
  <diagram name="Страница — 1" id="t8PgcB-Bj81JIGUaZiW2">
    <mxGraphModel dx="2830" dy="1774" grid="1" gridSize="10" guides="1" tooltips="1" connect="1" arrows="1" fold="1" page="1" pageScale="1" pageWidth="690" pageHeight="980" math="0" shadow="0">
      <root>
        <mxCell id="0" />
        <mxCell id="1" parent="0" />
        <mxCell id="xByyXgjnT6tnBIrzNjOe-23" value="gr_badges" style="swimlane;whiteSpace=wrap;html=1;" parent="1" vertex="1">
          <mxGeometry x="260" y="590" width="130" height="145" as="geometry" />
        </mxCell>
        <mxCell id="xByyXgjnT6tnBIrzNjOe-21" value="`  badge_id`          PK&#xa;  `string_constant`&#xa;  `badge_category` &#xa;  `disabled`&#xa;  `created_on` &#xa;  `updated_on`" style="text;whiteSpace=none;strokeWidth=2;rounded=0;verticalAlign=top;spacing=10;fontSize=13;horizontal=1;spacingTop=1;" parent="xByyXgjnT6tnBIrzNjOe-23" vertex="1">
          <mxGeometry x="-10" y="17.5" width="140" height="110" as="geometry" />
        </mxCell>
        <mxCell id="xByyXgjnT6tnBIrzNjOe-24" value="gr_badges_assigned" style="swimlane;whiteSpace=wrap;html=1;" parent="1" vertex="1">
          <mxGeometry x="710" y="585" width="170" height="130" as="geometry" />
        </mxCell>
        <mxCell id="xByyXgjnT6tnBIrzNjOe-26" value=" badge_assigned_id` PK  &#xa;  `badge_id` &#xa;  `user_id`&#xa;  `group_id` &#xa;  `assigned_on`" style="text;whiteSpace=wrap;fontSize=13;spacing=3;" parent="xByyXgjnT6tnBIrzNjOe-24" vertex="1">
          <mxGeometry y="30" width="170" height="100" as="geometry" />
        </mxCell>
        <mxCell id="xByyXgjnT6tnBIrzNjOe-27" value="gr_bank_transfer_receipts" style="swimlane;whiteSpace=wrap;html=1;" parent="1" vertex="1">
          <mxGeometry x="1855" y="1085" width="220" height="145" as="geometry" />
        </mxCell>
        <mxCell id="xByyXgjnT6tnBIrzNjOe-28" value=" `bank_transfer_receipt_id`         PK&#xa;  `membership_order_id` &#xa;  `receipt_file_name` &#xa;  `receipt_status` &#xa;  `created_on` &#xa;  `updated_on` " style="text;whiteSpace=none;strokeWidth=2;rounded=0;verticalAlign=top;spacing=10;fontSize=13;horizontal=1;spacingTop=1;" parent="xByyXgjnT6tnBIrzNjOe-27" vertex="1">
          <mxGeometry x="-10" y="17.5" width="140" height="110" as="geometry" />
        </mxCell>
        <mxCell id="aM84LzSGUawsXzDRVU1t-1" value="&lt;span style=&quot;text-align: left;&quot;&gt;gr_billing_address&lt;/span&gt;" style="swimlane;whiteSpace=wrap;html=1;fontSize=13;" parent="1" vertex="1">
          <mxGeometry x="1430" y="555" width="170" height="200" as="geometry" />
        </mxCell>
        <mxCell id="aM84LzSGUawsXzDRVU1t-3" value="&#xa;  `billing_address_id`      PK  `  user_id` &#xa;  `billed_to` &#xa;  `street_address` &#xa;  `city` &#xa;  `state`&#xa;  `country` &#xa;  `postal_code`&#xa;  `created_on`&#xa;  `updated_on`" style="text;whiteSpace=wrap;fontSize=13;" parent="aM84LzSGUawsXzDRVU1t-1" vertex="1">
          <mxGeometry y="20" width="170" height="180" as="geometry" />
        </mxCell>
        <mxCell id="aM84LzSGUawsXzDRVU1t-5" value="&lt;div style=&quot;text-align: left;&quot;&gt;&lt;span style=&quot;background-color: initial;&quot;&gt;gr_complaints&lt;/span&gt;&lt;/div&gt;" style="swimlane;whiteSpace=wrap;html=1;fontSize=13;" parent="1" vertex="1">
          <mxGeometry x="920" y="510" width="200" height="220" as="geometry" />
        </mxCell>
        <mxCell id="aM84LzSGUawsXzDRVU1t-4" value="`  complaint_id`                     PK&#xa;  `reason` &#xa;  `group_id`  &#xa;  `user_id`  &#xa;  `group_message_id` &#xa;  `private_chat_message_id` &#xa;  `comments_by_complainant` &#xa;  `complainant_user_id`&#xa;  `complaint_status` &#xa;  `reviewer_user_id` &#xa;  `comments_by_reviewer` &#xa;  `updated_on`" style="text;whiteSpace=wrap;fontSize=13;" parent="aM84LzSGUawsXzDRVU1t-5" vertex="1">
          <mxGeometry y="20" width="200" height="200" as="geometry" />
        </mxCell>
        <mxCell id="aM84LzSGUawsXzDRVU1t-8" value="gr_cron_jobs" style="swimlane;whiteSpace=wrap;html=1;" parent="1" vertex="1">
          <mxGeometry x="100" y="1782.5" width="180" height="145" as="geometry" />
        </mxCell>
        <mxCell id="aM84LzSGUawsXzDRVU1t-7" value="   cron_job_id`           PK &#xa;  `cron_job`&#xa;  `cron_job_access_code` &#xa;  `cron_job_parameters` &#xa;  `created_on` &#xa;  `updated_on` &#xa;  `last_run_time`" style="text;whiteSpace=wrap;fontSize=13;" parent="aM84LzSGUawsXzDRVU1t-8" vertex="1">
          <mxGeometry y="22.5" width="180" height="120" as="geometry" />
        </mxCell>
        <mxCell id="aM84LzSGUawsXzDRVU1t-11" value="gr_friends" style="swimlane;whiteSpace=wrap;html=1;" parent="1" vertex="1">
          <mxGeometry x="610" y="-10" width="130" height="145" as="geometry" />
        </mxCell>
        <mxCell id="aM84LzSGUawsXzDRVU1t-10" value="`  friendship_id`     PK&#xa;  `from_user_id` &#xa;  `to_user_id` &#xa;  `relation_status` &#xa;  `created_on` &#xa;  `updated_on`" style="text;whiteSpace=wrap;fontSize=13;" parent="aM84LzSGUawsXzDRVU1t-11" vertex="1">
          <mxGeometry y="30" width="130" height="110" as="geometry" />
        </mxCell>
        <mxCell id="aM84LzSGUawsXzDRVU1t-27" value="&lt;div style=&quot;text-align: left;&quot;&gt;&lt;span style=&quot;background-color: initial;&quot;&gt;gr_groups&lt;/span&gt;&lt;/div&gt;" style="swimlane;whiteSpace=wrap;html=1;fontSize=13;" parent="1" vertex="1">
          <mxGeometry x="170" y="-360" width="230" height="420" as="geometry" />
        </mxCell>
        <mxCell id="aM84LzSGUawsXzDRVU1t-16" value="`  group_id`                                 PK&#xa;  `name` &#xa;  `slug` &#xa;  `description`&#xa;  `meta_title` &#xa;  `meta_description` &#xa;  `password` &#xa;  `secret_group`&#xa;  `group_picture` &#xa;  `group_cover_pic` &#xa;  `group_bg_image` &#xa;  `secret_code` &#xa;  `unleavable` &#xa;  `who_all_can_send_messages` ,&#xa;  `pin_group`&#xa;  `auto_join_group`&#xa;  `enable_video_chat` &#xa;  `default_group_role` &#xa;  `total_members` &#xa;  `suspended`&#xa;  `group_header_status` &#xa;  `created_by` &#xa;  `created_on` &#xa;  `updated_on`" style="text;whiteSpace=wrap;fontSize=13;" parent="aM84LzSGUawsXzDRVU1t-27" vertex="1">
          <mxGeometry x="5" y="25" width="220" height="370" as="geometry" />
        </mxCell>
        <mxCell id="aM84LzSGUawsXzDRVU1t-40" value="`gr_group_invitations`&amp;nbsp;" style="swimlane;whiteSpace=wrap;html=1;" parent="1" vertex="1">
          <mxGeometry x="-130" y="-370" width="180" height="170" as="geometry" />
        </mxCell>
        <mxCell id="aM84LzSGUawsXzDRVU1t-31" value="`  group_invitation_id`       PK&#xa;  `user_id` &#xa;  `group_id` &#xa;  `referrer_user_id` &#xa;  `related_email_address` &#xa;  `invitation_code` &#xa;  `expired` &#xa;  `created_on`&#xa;  `updated_on`" style="text;whiteSpace=wrap;fontSize=13;" parent="aM84LzSGUawsXzDRVU1t-40" vertex="1">
          <mxGeometry y="20" width="170" height="150" as="geometry" />
        </mxCell>
        <mxCell id="aM84LzSGUawsXzDRVU1t-43" value="&lt;div style=&quot;text-align: left;&quot;&gt;`gr_group_members`&lt;br&gt;&lt;/div&gt;" style="swimlane;whiteSpace=wrap;html=1;fontSize=13;" parent="1" vertex="1">
          <mxGeometry x="560" y="-330" width="200" height="222.5" as="geometry" />
        </mxCell>
        <mxCell id="aM84LzSGUawsXzDRVU1t-42" value="`  group_member_id`         PK &#xa;  `group_id` &#xa;  `user_id` &#xa;  `group_role_id` &#xa;  `referrer_user_id`&#xa;  `last_read_message_id` &#xa;  `load_message_id_from` &#xa;  `currently_browsing` &#xa;  `previous_group_role_id` &#xa;  `banned_till`&#xa;  `joined_on` &#xa;  `updated_on`" style="text;whiteSpace=wrap;fontSize=13;" parent="aM84LzSGUawsXzDRVU1t-43" vertex="1">
          <mxGeometry x="10" y="22.5" width="180" height="200" as="geometry" />
        </mxCell>
        <mxCell id="aM84LzSGUawsXzDRVU1t-46" value="&lt;div style=&quot;text-align: left;&quot;&gt;gr_group_messages&lt;br&gt;&lt;/div&gt;" style="swimlane;whiteSpace=wrap;html=1;fontSize=13;" parent="1" vertex="1">
          <mxGeometry x="520" y="-640" width="160" height="240" as="geometry" />
        </mxCell>
        <mxCell id="aM84LzSGUawsXzDRVU1t-45" value="`  group_message_id`   PK&#xa;  `group_id` &#xa;  `user_id` &#xa;  `original_message` &#xa;  `filtered_message` &#xa;  `system_message` &#xa;  `parent_message_id` &#xa;  `attachment_type` &#xa;  `attachments` &#xa;  `link_preview`&#xa;  `total_reactions`&#xa;  `created_on` &#xa;  `updated_on`" style="text;whiteSpace=wrap;fontSize=13;" parent="aM84LzSGUawsXzDRVU1t-46" vertex="1">
          <mxGeometry y="20" width="160" height="210" as="geometry" />
        </mxCell>
        <mxCell id="aM84LzSGUawsXzDRVU1t-48" value="&lt;div style=&quot;text-align: left;&quot;&gt;gr_login_sessions&lt;br&gt;&lt;/div&gt;" style="swimlane;whiteSpace=wrap;html=1;fontSize=13;" parent="1" vertex="1">
          <mxGeometry x="1740" y="475" width="180" height="240" as="geometry" />
        </mxCell>
        <mxCell id="aM84LzSGUawsXzDRVU1t-52" value="`  login_session_id`        PK&#xa;  `user_id` &#xa;  `initiated_ip_address`&#xa;  `access_code`&#xa;  `csrf_token` &#xa;  `csrf_token_generated_on` &#xa;  `log_device` &#xa;  `login_from_user_id` &#xa;  `status` &#xa;  `failed_attempts` &#xa;  `time_stamp`&#xa;  `last_access` " style="text;whiteSpace=wrap;fontSize=13;" parent="aM84LzSGUawsXzDRVU1t-48" vertex="1">
          <mxGeometry x="5" y="30" width="170" height="210" as="geometry" />
        </mxCell>
        <mxCell id="aM84LzSGUawsXzDRVU1t-54" value="&lt;span style=&quot;text-align: left;&quot;&gt;gr_mailbox&lt;/span&gt;" style="swimlane;whiteSpace=wrap;html=1;" parent="1" vertex="1">
          <mxGeometry x="1590" y="-45" width="155" height="180" as="geometry" />
        </mxCell>
        <mxCell id="aM84LzSGUawsXzDRVU1t-56" value="&lt;span style=&quot;color: rgb(0, 0, 0); font-family: Helvetica; font-size: 13px; font-style: normal; font-variant-ligatures: normal; font-variant-caps: normal; font-weight: 400; letter-spacing: normal; orphans: 2; text-align: left; text-indent: 0px; text-transform: none; widows: 2; word-spacing: 0px; -webkit-text-stroke-width: 0px; white-space: normal; background-color: rgb(251, 251, 251); text-decoration-thickness: initial; text-decoration-style: initial; text-decoration-color: initial; float: none; display: inline !important;&quot;&gt;`mail_id`&amp;nbsp; &amp;nbsp; &amp;nbsp; &amp;nbsp; &amp;nbsp; &amp;nbsp; &amp;nbsp; &amp;nbsp; &amp;nbsp; &amp;nbsp;PK&lt;/span&gt;&lt;br style=&quot;forced-color-adjust: none; padding: 0px; margin: 0px; color: rgb(0, 0, 0); font-family: Helvetica; font-size: 13px; font-style: normal; font-variant-ligatures: normal; font-variant-caps: normal; font-weight: 400; letter-spacing: normal; orphans: 2; text-align: left; text-indent: 0px; text-transform: none; widows: 2; word-spacing: 0px; -webkit-text-stroke-width: 0px; white-space: normal; background-color: rgb(251, 251, 251); text-decoration-thickness: initial; text-decoration-style: initial; text-decoration-color: initial;&quot;&gt;&lt;span style=&quot;color: rgb(0, 0, 0); font-family: Helvetica; font-size: 13px; font-style: normal; font-variant-ligatures: normal; font-variant-caps: normal; font-weight: 400; letter-spacing: normal; orphans: 2; text-align: left; text-indent: 0px; text-transform: none; widows: 2; word-spacing: 0px; -webkit-text-stroke-width: 0px; white-space: normal; background-color: rgb(251, 251, 251); text-decoration-thickness: initial; text-decoration-style: initial; text-decoration-color: initial; float: none; display: inline !important;&quot;&gt;&amp;nbsp; `email_addresses`&amp;nbsp;&lt;/span&gt;&lt;br style=&quot;forced-color-adjust: none; padding: 0px; margin: 0px; color: rgb(0, 0, 0); font-family: Helvetica; font-size: 13px; font-style: normal; font-variant-ligatures: normal; font-variant-caps: normal; font-weight: 400; letter-spacing: normal; orphans: 2; text-align: left; text-indent: 0px; text-transform: none; widows: 2; word-spacing: 0px; -webkit-text-stroke-width: 0px; white-space: normal; background-color: rgb(251, 251, 251); text-decoration-thickness: initial; text-decoration-style: initial; text-decoration-color: initial;&quot;&gt;&lt;span style=&quot;color: rgb(0, 0, 0); font-family: Helvetica; font-size: 13px; font-style: normal; font-variant-ligatures: normal; font-variant-caps: normal; font-weight: 400; letter-spacing: normal; orphans: 2; text-align: left; text-indent: 0px; text-transform: none; widows: 2; word-spacing: 0px; -webkit-text-stroke-width: 0px; white-space: normal; background-color: rgb(251, 251, 251); text-decoration-thickness: initial; text-decoration-style: initial; text-decoration-color: initial; float: none; display: inline !important;&quot;&gt;&amp;nbsp; `email_category`&lt;/span&gt;&lt;br style=&quot;forced-color-adjust: none; padding: 0px; margin: 0px; color: rgb(0, 0, 0); font-family: Helvetica; font-size: 13px; font-style: normal; font-variant-ligatures: normal; font-variant-caps: normal; font-weight: 400; letter-spacing: normal; orphans: 2; text-align: left; text-indent: 0px; text-transform: none; widows: 2; word-spacing: 0px; -webkit-text-stroke-width: 0px; white-space: normal; background-color: rgb(251, 251, 251); text-decoration-thickness: initial; text-decoration-style: initial; text-decoration-color: initial;&quot;&gt;&lt;span style=&quot;color: rgb(0, 0, 0); font-family: Helvetica; font-size: 13px; font-style: normal; font-variant-ligatures: normal; font-variant-caps: normal; font-weight: 400; letter-spacing: normal; orphans: 2; text-align: left; text-indent: 0px; text-transform: none; widows: 2; word-spacing: 0px; -webkit-text-stroke-width: 0px; white-space: normal; background-color: rgb(251, 251, 251); text-decoration-thickness: initial; text-decoration-style: initial; text-decoration-color: initial; float: none; display: inline !important;&quot;&gt;&amp;nbsp; `user_id`&amp;nbsp;&lt;/span&gt;&lt;br style=&quot;forced-color-adjust: none; padding: 0px; margin: 0px; color: rgb(0, 0, 0); font-family: Helvetica; font-size: 13px; font-style: normal; font-variant-ligatures: normal; font-variant-caps: normal; font-weight: 400; letter-spacing: normal; orphans: 2; text-align: left; text-indent: 0px; text-transform: none; widows: 2; word-spacing: 0px; -webkit-text-stroke-width: 0px; white-space: normal; background-color: rgb(251, 251, 251); text-decoration-thickness: initial; text-decoration-style: initial; text-decoration-color: initial;&quot;&gt;&lt;span style=&quot;color: rgb(0, 0, 0); font-family: Helvetica; font-size: 13px; font-style: normal; font-variant-ligatures: normal; font-variant-caps: normal; font-weight: 400; letter-spacing: normal; orphans: 2; text-align: left; text-indent: 0px; text-transform: none; widows: 2; word-spacing: 0px; -webkit-text-stroke-width: 0px; white-space: normal; background-color: rgb(251, 251, 251); text-decoration-thickness: initial; text-decoration-style: initial; text-decoration-color: initial; float: none; display: inline !important;&quot;&gt;&amp;nbsp; `email_parameters`&amp;nbsp;&lt;/span&gt;&lt;br style=&quot;forced-color-adjust: none; padding: 0px; margin: 0px; color: rgb(0, 0, 0); font-family: Helvetica; font-size: 13px; font-style: normal; font-variant-ligatures: normal; font-variant-caps: normal; font-weight: 400; letter-spacing: normal; orphans: 2; text-align: left; text-indent: 0px; text-transform: none; widows: 2; word-spacing: 0px; -webkit-text-stroke-width: 0px; white-space: normal; background-color: rgb(251, 251, 251); text-decoration-thickness: initial; text-decoration-style: initial; text-decoration-color: initial;&quot;&gt;&lt;span style=&quot;color: rgb(0, 0, 0); font-family: Helvetica; font-size: 13px; font-style: normal; font-variant-ligatures: normal; font-variant-caps: normal; font-weight: 400; letter-spacing: normal; orphans: 2; text-align: left; text-indent: 0px; text-transform: none; widows: 2; word-spacing: 0px; -webkit-text-stroke-width: 0px; white-space: normal; background-color: rgb(251, 251, 251); text-decoration-thickness: initial; text-decoration-style: initial; text-decoration-color: initial; float: none; display: inline !important;&quot;&gt;&amp;nbsp; `send_status`&amp;nbsp;&lt;/span&gt;&lt;br style=&quot;forced-color-adjust: none; padding: 0px; margin: 0px; color: rgb(0, 0, 0); font-family: Helvetica; font-size: 13px; font-style: normal; font-variant-ligatures: normal; font-variant-caps: normal; font-weight: 400; letter-spacing: normal; orphans: 2; text-align: left; text-indent: 0px; text-transform: none; widows: 2; word-spacing: 0px; -webkit-text-stroke-width: 0px; white-space: normal; background-color: rgb(251, 251, 251); text-decoration-thickness: initial; text-decoration-style: initial; text-decoration-color: initial;&quot;&gt;&lt;span style=&quot;color: rgb(0, 0, 0); font-family: Helvetica; font-size: 13px; font-style: normal; font-variant-ligatures: normal; font-variant-caps: normal; font-weight: 400; letter-spacing: normal; orphans: 2; text-align: left; text-indent: 0px; text-transform: none; widows: 2; word-spacing: 0px; -webkit-text-stroke-width: 0px; white-space: normal; background-color: rgb(251, 251, 251); text-decoration-thickness: initial; text-decoration-style: initial; text-decoration-color: initial; float: none; display: inline !important;&quot;&gt;&amp;nbsp; `mail_error_log`&amp;nbsp;&lt;/span&gt;&lt;br style=&quot;forced-color-adjust: none; padding: 0px; margin: 0px; color: rgb(0, 0, 0); font-family: Helvetica; font-size: 13px; font-style: normal; font-variant-ligatures: normal; font-variant-caps: normal; font-weight: 400; letter-spacing: normal; orphans: 2; text-align: left; text-indent: 0px; text-transform: none; widows: 2; word-spacing: 0px; -webkit-text-stroke-width: 0px; white-space: normal; background-color: rgb(251, 251, 251); text-decoration-thickness: initial; text-decoration-style: initial; text-decoration-color: initial;&quot;&gt;&lt;span style=&quot;color: rgb(0, 0, 0); font-family: Helvetica; font-size: 13px; font-style: normal; font-variant-ligatures: normal; font-variant-caps: normal; font-weight: 400; letter-spacing: normal; orphans: 2; text-align: left; text-indent: 0px; text-transform: none; widows: 2; word-spacing: 0px; -webkit-text-stroke-width: 0px; white-space: normal; background-color: rgb(251, 251, 251); text-decoration-thickness: initial; text-decoration-style: initial; text-decoration-color: initial; float: none; display: inline !important;&quot;&gt;&amp;nbsp; `created_on`&amp;nbsp;&lt;/span&gt;&lt;br style=&quot;forced-color-adjust: none; padding: 0px; margin: 0px; color: rgb(0, 0, 0); font-family: Helvetica; font-size: 13px; font-style: normal; font-variant-ligatures: normal; font-variant-caps: normal; font-weight: 400; letter-spacing: normal; orphans: 2; text-align: left; text-indent: 0px; text-transform: none; widows: 2; word-spacing: 0px; -webkit-text-stroke-width: 0px; white-space: normal; background-color: rgb(251, 251, 251); text-decoration-thickness: initial; text-decoration-style: initial; text-decoration-color: initial;&quot;&gt;&lt;span style=&quot;color: rgb(0, 0, 0); font-family: Helvetica; font-size: 13px; font-style: normal; font-variant-ligatures: normal; font-variant-caps: normal; font-weight: 400; letter-spacing: normal; orphans: 2; text-align: left; text-indent: 0px; text-transform: none; widows: 2; word-spacing: 0px; -webkit-text-stroke-width: 0px; white-space: normal; background-color: rgb(251, 251, 251); text-decoration-thickness: initial; text-decoration-style: initial; text-decoration-color: initial; float: none; display: inline !important;&quot;&gt;&amp;nbsp; `updated_on`&lt;/span&gt;" style="text;whiteSpace=wrap;html=1;fontSize=13;" parent="aM84LzSGUawsXzDRVU1t-54" vertex="1">
          <mxGeometry x="5" y="30" width="150" height="150" as="geometry" />
        </mxCell>
        <mxCell id="aM84LzSGUawsXzDRVU1t-58" value="&lt;span style=&quot;text-align: left;&quot;&gt;gr_membership_orders&lt;/span&gt;" style="swimlane;whiteSpace=wrap;html=1;" parent="1" vertex="1">
          <mxGeometry x="1270" y="1080" width="190" height="180" as="geometry" />
        </mxCell>
        <mxCell id="aM84LzSGUawsXzDRVU1t-60" value="&lt;span style=&quot;color: rgb(0, 0, 0); font-family: Helvetica; font-size: 13px; font-style: normal; font-variant-ligatures: normal; font-variant-caps: normal; font-weight: 400; letter-spacing: normal; orphans: 2; text-align: left; text-indent: 0px; text-transform: none; widows: 2; word-spacing: 0px; -webkit-text-stroke-width: 0px; white-space: normal; background-color: rgb(251, 251, 251); text-decoration-thickness: initial; text-decoration-style: initial; text-decoration-color: initial; float: none; display: inline !important;&quot;&gt;`order_id`&amp;nbsp;&lt;/span&gt;&lt;br style=&quot;forced-color-adjust: none; padding: 0px; margin: 0px; color: rgb(0, 0, 0); font-family: Helvetica; font-size: 13px; font-style: normal; font-variant-ligatures: normal; font-variant-caps: normal; font-weight: 400; letter-spacing: normal; orphans: 2; text-align: left; text-indent: 0px; text-transform: none; widows: 2; word-spacing: 0px; -webkit-text-stroke-width: 0px; white-space: normal; background-color: rgb(251, 251, 251); text-decoration-thickness: initial; text-decoration-style: initial; text-decoration-color: initial;&quot;&gt;&lt;span style=&quot;color: rgb(0, 0, 0); font-family: Helvetica; font-size: 13px; font-style: normal; font-variant-ligatures: normal; font-variant-caps: normal; font-weight: 400; letter-spacing: normal; orphans: 2; text-align: left; text-indent: 0px; text-transform: none; widows: 2; word-spacing: 0px; -webkit-text-stroke-width: 0px; white-space: normal; background-color: rgb(251, 251, 251); text-decoration-thickness: initial; text-decoration-style: initial; text-decoration-color: initial; float: none; display: inline !important;&quot;&gt;&amp;nbsp; `user_id`&amp;nbsp;&lt;/span&gt;&lt;br style=&quot;forced-color-adjust: none; padding: 0px; margin: 0px; color: rgb(0, 0, 0); font-family: Helvetica; font-size: 13px; font-style: normal; font-variant-ligatures: normal; font-variant-caps: normal; font-weight: 400; letter-spacing: normal; orphans: 2; text-align: left; text-indent: 0px; text-transform: none; widows: 2; word-spacing: 0px; -webkit-text-stroke-width: 0px; white-space: normal; background-color: rgb(251, 251, 251); text-decoration-thickness: initial; text-decoration-style: initial; text-decoration-color: initial;&quot;&gt;&lt;span style=&quot;color: rgb(0, 0, 0); font-family: Helvetica; font-size: 13px; font-style: normal; font-variant-ligatures: normal; font-variant-caps: normal; font-weight: 400; letter-spacing: normal; orphans: 2; text-align: left; text-indent: 0px; text-transform: none; widows: 2; word-spacing: 0px; -webkit-text-stroke-width: 0px; white-space: normal; background-color: rgb(251, 251, 251); text-decoration-thickness: initial; text-decoration-style: initial; text-decoration-color: initial; float: none; display: inline !important;&quot;&gt;&amp;nbsp; `membership_package_id`&amp;nbsp;&lt;/span&gt;&lt;br style=&quot;forced-color-adjust: none; padding: 0px; margin: 0px; color: rgb(0, 0, 0); font-family: Helvetica; font-size: 13px; font-style: normal; font-variant-ligatures: normal; font-variant-caps: normal; font-weight: 400; letter-spacing: normal; orphans: 2; text-align: left; text-indent: 0px; text-transform: none; widows: 2; word-spacing: 0px; -webkit-text-stroke-width: 0px; white-space: normal; background-color: rgb(251, 251, 251); text-decoration-thickness: initial; text-decoration-style: initial; text-decoration-color: initial;&quot;&gt;&lt;span style=&quot;color: rgb(0, 0, 0); font-family: Helvetica; font-size: 13px; font-style: normal; font-variant-ligatures: normal; font-variant-caps: normal; font-weight: 400; letter-spacing: normal; orphans: 2; text-align: left; text-indent: 0px; text-transform: none; widows: 2; word-spacing: 0px; -webkit-text-stroke-width: 0px; white-space: normal; background-color: rgb(251, 251, 251); text-decoration-thickness: initial; text-decoration-style: initial; text-decoration-color: initial; float: none; display: inline !important;&quot;&gt;&amp;nbsp; `order_status`&amp;nbsp;&lt;/span&gt;&lt;br style=&quot;forced-color-adjust: none; padding: 0px; margin: 0px; color: rgb(0, 0, 0); font-family: Helvetica; font-size: 13px; font-style: normal; font-variant-ligatures: normal; font-variant-caps: normal; font-weight: 400; letter-spacing: normal; orphans: 2; text-align: left; text-indent: 0px; text-transform: none; widows: 2; word-spacing: 0px; -webkit-text-stroke-width: 0px; white-space: normal; background-color: rgb(251, 251, 251); text-decoration-thickness: initial; text-decoration-style: initial; text-decoration-color: initial;&quot;&gt;&lt;span style=&quot;color: rgb(0, 0, 0); font-family: Helvetica; font-size: 13px; font-style: normal; font-variant-ligatures: normal; font-variant-caps: normal; font-weight: 400; letter-spacing: normal; orphans: 2; text-align: left; text-indent: 0px; text-transform: none; widows: 2; word-spacing: 0px; -webkit-text-stroke-width: 0px; white-space: normal; background-color: rgb(251, 251, 251); text-decoration-thickness: initial; text-decoration-style: initial; text-decoration-color: initial; float: none; display: inline !important;&quot;&gt;&amp;nbsp; `payment_gateway_id`&amp;nbsp;&lt;/span&gt;&lt;br style=&quot;forced-color-adjust: none; padding: 0px; margin: 0px; color: rgb(0, 0, 0); font-family: Helvetica; font-size: 13px; font-style: normal; font-variant-ligatures: normal; font-variant-caps: normal; font-weight: 400; letter-spacing: normal; orphans: 2; text-align: left; text-indent: 0px; text-transform: none; widows: 2; word-spacing: 0px; -webkit-text-stroke-width: 0px; white-space: normal; background-color: rgb(251, 251, 251); text-decoration-thickness: initial; text-decoration-style: initial; text-decoration-color: initial;&quot;&gt;&lt;span style=&quot;color: rgb(0, 0, 0); font-family: Helvetica; font-size: 13px; font-style: normal; font-variant-ligatures: normal; font-variant-caps: normal; font-weight: 400; letter-spacing: normal; orphans: 2; text-align: left; text-indent: 0px; text-transform: none; widows: 2; word-spacing: 0px; -webkit-text-stroke-width: 0px; white-space: normal; background-color: rgb(251, 251, 251); text-decoration-thickness: initial; text-decoration-style: initial; text-decoration-color: initial; float: none; display: inline !important;&quot;&gt;&amp;nbsp; `transaction_info`&amp;nbsp;&lt;/span&gt;&lt;br style=&quot;forced-color-adjust: none; padding: 0px; margin: 0px; color: rgb(0, 0, 0); font-family: Helvetica; font-size: 13px; font-style: normal; font-variant-ligatures: normal; font-variant-caps: normal; font-weight: 400; letter-spacing: normal; orphans: 2; text-align: left; text-indent: 0px; text-transform: none; widows: 2; word-spacing: 0px; -webkit-text-stroke-width: 0px; white-space: normal; background-color: rgb(251, 251, 251); text-decoration-thickness: initial; text-decoration-style: initial; text-decoration-color: initial;&quot;&gt;&lt;span style=&quot;color: rgb(0, 0, 0); font-family: Helvetica; font-size: 13px; font-style: normal; font-variant-ligatures: normal; font-variant-caps: normal; font-weight: 400; letter-spacing: normal; orphans: 2; text-align: left; text-indent: 0px; text-transform: none; widows: 2; word-spacing: 0px; -webkit-text-stroke-width: 0px; white-space: normal; background-color: rgb(251, 251, 251); text-decoration-thickness: initial; text-decoration-style: initial; text-decoration-color: initial; float: none; display: inline !important;&quot;&gt;&amp;nbsp; `created_on`&amp;nbsp;&lt;/span&gt;&lt;br style=&quot;forced-color-adjust: none; padding: 0px; margin: 0px; color: rgb(0, 0, 0); font-family: Helvetica; font-size: 13px; font-style: normal; font-variant-ligatures: normal; font-variant-caps: normal; font-weight: 400; letter-spacing: normal; orphans: 2; text-align: left; text-indent: 0px; text-transform: none; widows: 2; word-spacing: 0px; -webkit-text-stroke-width: 0px; white-space: normal; background-color: rgb(251, 251, 251); text-decoration-thickness: initial; text-decoration-style: initial; text-decoration-color: initial;&quot;&gt;&lt;span style=&quot;color: rgb(0, 0, 0); font-family: Helvetica; font-size: 13px; font-style: normal; font-variant-ligatures: normal; font-variant-caps: normal; font-weight: 400; letter-spacing: normal; orphans: 2; text-align: left; text-indent: 0px; text-transform: none; widows: 2; word-spacing: 0px; -webkit-text-stroke-width: 0px; white-space: normal; background-color: rgb(251, 251, 251); text-decoration-thickness: initial; text-decoration-style: initial; text-decoration-color: initial; float: none; display: inline !important;&quot;&gt;&amp;nbsp; `updated_on`&amp;nbsp;&lt;/span&gt;" style="text;whiteSpace=wrap;html=1;fontSize=13;" parent="aM84LzSGUawsXzDRVU1t-58" vertex="1">
          <mxGeometry y="30" width="190" height="140" as="geometry" />
        </mxCell>
        <mxCell id="aM84LzSGUawsXzDRVU1t-62" value="&lt;span style=&quot;text-align: left; font-size: 13px;&quot;&gt;gr_membership_packages&lt;/span&gt;&lt;span style=&quot;font-weight: 400; text-align: left; font-size: 13px;&quot;&gt;`&lt;/span&gt;" style="swimlane;whiteSpace=wrap;html=1;fontSize=13;" parent="1" vertex="1">
          <mxGeometry x="900" y="845" width="230" height="180" as="geometry" />
        </mxCell>
        <mxCell id="aM84LzSGUawsXzDRVU1t-61" value="&#xa;  `membership_package_id`            PK &#xa;  `string_constant` &#xa;  `is_recurring` &#xa;  `pricing` &#xa;  `duration` &#xa;  `related_site_role_id` &#xa;  `site_role_id_on_expire` &#xa;  `disabled` &#xa;  `updated_on` " style="text;whiteSpace=wrap;fontSize=13;" parent="aM84LzSGUawsXzDRVU1t-62" vertex="1">
          <mxGeometry y="10" width="230" height="170" as="geometry" />
        </mxCell>
        <mxCell id="aM84LzSGUawsXzDRVU1t-65" value="&lt;span style=&quot;text-align: left; font-size: 13px;&quot;&gt;gr_payment_gateways&lt;/span&gt;" style="swimlane;whiteSpace=wrap;html=1;fontSize=13;" parent="1" vertex="1">
          <mxGeometry x="380" y="930" width="190" height="130" as="geometry" />
        </mxCell>
        <mxCell id="aM84LzSGUawsXzDRVU1t-64" value="&#xa;  `payment_gateway_id`       PK &#xa;  `identifier` &#xa;  `credentials` &#xa;  `disabled` &#xa;  `updated_on` " style="text;whiteSpace=wrap;fontSize=13;" parent="aM84LzSGUawsXzDRVU1t-65" vertex="1">
          <mxGeometry y="10" width="190" height="120" as="geometry" />
        </mxCell>
        <mxCell id="aM84LzSGUawsXzDRVU1t-69" value="&lt;div style=&quot;text-align: left;&quot;&gt;gr_group_messages_reactions&lt;br&gt;&lt;/div&gt;" style="swimlane;whiteSpace=wrap;html=1;fontSize=13;" parent="1" vertex="1">
          <mxGeometry x="2070" y="590" width="240" height="120" as="geometry" />
        </mxCell>
        <mxCell id="aM84LzSGUawsXzDRVU1t-71" value="`group_message_reaction_id`           PK &#xa;  `user_id` &#xa;  `group_message_id` &#xa;  `reaction_id` &#xa;  `updated_on`" style="text;whiteSpace=wrap;fontSize=13;" parent="aM84LzSGUawsXzDRVU1t-69" vertex="1">
          <mxGeometry y="22.5" width="240" height="97.5" as="geometry" />
        </mxCell>
        <mxCell id="aM84LzSGUawsXzDRVU1t-72" value="&lt;div style=&quot;text-align: left;&quot;&gt;&lt;span style=&quot;background-color: initial;&quot;&gt;gr_group_roles`&lt;/span&gt;&lt;/div&gt;" style="swimlane;whiteSpace=wrap;html=1;" parent="1" vertex="1">
          <mxGeometry x="-90" y="-70" width="160" height="160" as="geometry" />
        </mxCell>
        <mxCell id="aM84LzSGUawsXzDRVU1t-74" value="`group_role_id`           PK&#xa;  `string_constant` &#xa;  `permissions` &#xa;  `group_role_attribute`&#xa;  `role_hierarchy` &#xa;  `disabled` &#xa;  `updated_on`" style="text;whiteSpace=wrap;fontSize=13;" parent="aM84LzSGUawsXzDRVU1t-72" vertex="1">
          <mxGeometry y="30" width="160" height="130" as="geometry" />
        </mxCell>
        <mxCell id="aM84LzSGUawsXzDRVU1t-76" value="&lt;div style=&quot;text-align: left;&quot;&gt;&lt;span style=&quot;background-color: initial;&quot;&gt;gr_languages&lt;/span&gt;&lt;/div&gt;" style="swimlane;whiteSpace=wrap;html=1;fontSize=13;" parent="1" vertex="1">
          <mxGeometry x="1310" y="890" width="150" height="140" as="geometry" />
        </mxCell>
        <mxCell id="aM84LzSGUawsXzDRVU1t-75" value="`language_id`        PK      &#xa;  `name`&#xa;  `iso_code`&#xa;  `text_direction` &#xa;  `disabled` &#xa;  `updated_on`" style="text;whiteSpace=wrap;fontSize=13;" parent="aM84LzSGUawsXzDRVU1t-76" vertex="1">
          <mxGeometry y="30" width="150" height="110" as="geometry" />
        </mxCell>
        <mxCell id="aM84LzSGUawsXzDRVU1t-79" value="&lt;div style=&quot;text-align: left;&quot;&gt;&lt;span style=&quot;background-color: initial;&quot;&gt;gr_languages_strings&lt;/span&gt;&lt;/div&gt;" style="swimlane;whiteSpace=wrap;html=1;fontSize=13;" parent="1" vertex="1">
          <mxGeometry x="1770" y="860" width="255" height="150" as="geometry" />
        </mxCell>
        <mxCell id="aM84LzSGUawsXzDRVU1t-78" value="`string_id`                                              PK &#xa;  `string_constant` &#xa;  `string_value` &#xa;  `string_type` &#xa;  `skip_update` &#xa;  `skip_cache` &#xa;  `language_id`" style="text;whiteSpace=wrap;fontSize=13;" parent="aM84LzSGUawsXzDRVU1t-79" vertex="1">
          <mxGeometry y="25" width="250" height="120" as="geometry" />
        </mxCell>
        <mxCell id="aM84LzSGUawsXzDRVU1t-81" value="&lt;div style=&quot;text-align: left;&quot;&gt;&lt;span style=&quot;background-color: initial;&quot;&gt;gr_private_chat_messages&lt;/span&gt;&lt;/div&gt;" style="swimlane;whiteSpace=wrap;html=1;" parent="1" vertex="1">
          <mxGeometry x="1900" y="-580" width="240" height="240" as="geometry" />
        </mxCell>
        <mxCell id="aM84LzSGUawsXzDRVU1t-83" value="`private_chat_message_id`            PK &#xa;  `private_conversation_id` &#xa;  `user_id` &#xa;  `original_message` &#xa;  `filtered_message` &#xa;  `system_message` &#xa;  `parent_message_id` &#xa;  `attachment_type` &#xa;  `attachments` &#xa;  `link_preview` &#xa;  `read_status` &#xa;  `created_on` &#xa;  `updated_on`" style="text;whiteSpace=wrap;fontSize=13;" parent="aM84LzSGUawsXzDRVU1t-81" vertex="1">
          <mxGeometry x="5" y="20" width="235" height="210" as="geometry" />
        </mxCell>
        <mxCell id="aM84LzSGUawsXzDRVU1t-85" value="&lt;div style=&quot;text-align: left;&quot;&gt;`gr_private_conversations`&lt;br&gt;&lt;/div&gt;" style="swimlane;whiteSpace=wrap;html=1;" parent="1" vertex="1">
          <mxGeometry x="1610" y="-435" width="230" height="160" as="geometry" />
        </mxCell>
        <mxCell id="aM84LzSGUawsXzDRVU1t-84" value="`private_conversation_id`              PK&#xa;  `initiator_user_id`&#xa;  `recipient_user_id` &#xa;  `initiator_load_message_id_from` &#xa;  `recipient_load_message_id_from` &#xa;  `created_on` &#xa;  `updated_on`" style="text;whiteSpace=wrap;fontSize=13;" parent="aM84LzSGUawsXzDRVU1t-85" vertex="1">
          <mxGeometry y="30" width="230" height="120" as="geometry" />
        </mxCell>
        <mxCell id="aM84LzSGUawsXzDRVU1t-88" value="&lt;div style=&quot;text-align: left;&quot;&gt;`gr_push_subscriptions`&amp;nbsp;&lt;br&gt;&lt;/div&gt;" style="swimlane;whiteSpace=wrap;html=1;" parent="1" vertex="1">
          <mxGeometry x="1640" y="230" width="200" height="140" as="geometry" />
        </mxCell>
        <mxCell id="aM84LzSGUawsXzDRVU1t-87" value="`push_subscriber_id`&#xa;  `user_id`&#xa;  `device_token` &#xa;  `push_notification_service` &#xa;  `created_on` &#xa;  `updated_on`" style="text;whiteSpace=wrap;" parent="aM84LzSGUawsXzDRVU1t-88" vertex="1">
          <mxGeometry x="10" y="25" width="190" height="110" as="geometry" />
        </mxCell>
        <mxCell id="aM84LzSGUawsXzDRVU1t-91" value="&lt;div style=&quot;text-align: left;&quot;&gt;`gr_realtime_logs`&lt;br&gt;&lt;/div&gt;" style="swimlane;whiteSpace=wrap;html=1;" parent="1" vertex="1">
          <mxGeometry x="460" y="1800" width="160" height="110" as="geometry" />
        </mxCell>
        <mxCell id="aM84LzSGUawsXzDRVU1t-90" value="`realtime_log_id` &#xa;  `log_type` &#xa;  `related_parameters` &#xa;  `created_on`" style="text;whiteSpace=wrap;fontSize=13;" parent="aM84LzSGUawsXzDRVU1t-91" vertex="1">
          <mxGeometry x="10" y="30" width="160" height="80" as="geometry" />
        </mxCell>
        <mxCell id="aM84LzSGUawsXzDRVU1t-94" value="&lt;div style=&quot;text-align: left;&quot;&gt;gr_scheduled_messages&lt;br&gt;&lt;/div&gt;" style="swimlane;whiteSpace=wrap;html=1;" parent="1" vertex="1">
          <mxGeometry x="532.5" y="230" width="190" height="220" as="geometry" />
        </mxCell>
        <mxCell id="aM84LzSGUawsXzDRVU1t-93" value="`scheduled_message_id` &#xa;  `message_content` &#xa;  `group_id` &#xa;  `user_id` &#xa;  `repeat_message`&#xa;  `repeat_interval` &#xa;  `repetition_rate`&#xa;  `iteration_count`&#xa;  `send_message_on` &#xa;  `created_on`&#xa;  `updated_on`" style="text;whiteSpace=wrap;fontSize=13;" parent="aM84LzSGUawsXzDRVU1t-94" vertex="1">
          <mxGeometry x="10" y="30" width="170" height="180" as="geometry" />
        </mxCell>
        <mxCell id="aM84LzSGUawsXzDRVU1t-97" value="&lt;div style=&quot;text-align: left;&quot;&gt;`gr_settings`&lt;br&gt;&lt;/div&gt;" style="swimlane;whiteSpace=wrap;html=1;" parent="1" vertex="1">
          <mxGeometry x="-670" y="90" width="155" height="190" as="geometry" />
        </mxCell>
        <mxCell id="aM84LzSGUawsXzDRVU1t-96" value="`setting_id` &#xa;  `setting` &#xa;  `options` &#xa;  `value` &#xa;  `required` &#xa;  `category` &#xa;  `field_attributes`&#xa;  `settings_order` &#xa;  `updated_on`" style="text;whiteSpace=wrap;fontSize=13;" parent="aM84LzSGUawsXzDRVU1t-97" vertex="1">
          <mxGeometry x="5" y="30" width="130" height="150" as="geometry" />
        </mxCell>
        <mxCell id="aM84LzSGUawsXzDRVU1t-100" value="&lt;div style=&quot;text-align: left;&quot;&gt;`gr_site_notifications`&lt;br&gt;&lt;/div&gt;" style="swimlane;whiteSpace=wrap;html=1;" parent="1" vertex="1">
          <mxGeometry x="1230" y="-620" width="190" height="200" as="geometry" />
        </mxCell>
        <mxCell id="aM84LzSGUawsXzDRVU1t-105" value="`notification_id`               PK       &#xa;  `user_id` &#xa;  `notification_type` &#xa;  `related_group_id` &#xa;  `related_user_id`&#xa;  `related_message_id`&#xa;  `related_parameters` &#xa;  `read_status`&#xa;  `created_on` &#xa;  `updated_on`" style="text;whiteSpace=wrap;fontSize=13;" parent="aM84LzSGUawsXzDRVU1t-100" vertex="1">
          <mxGeometry y="27.5" width="190" height="170" as="geometry" />
        </mxCell>
        <mxCell id="aM84LzSGUawsXzDRVU1t-102" value="&lt;div style=&quot;text-align: left;&quot;&gt;gr_site_advertisements&lt;br&gt;&lt;/div&gt;" style="swimlane;whiteSpace=wrap;html=1;" parent="1" vertex="1">
          <mxGeometry x="1780" y="-170" width="190" height="170" as="geometry" />
        </mxCell>
        <mxCell id="aM84LzSGUawsXzDRVU1t-104" value="`site_advert_id`                    PK&#xa;  `site_advert_name`&#xa;  `site_advert_content`&#xa;  `site_advert_placement` &#xa;  `site_advert_min_height` &#xa;  `site_advert_max_height` &#xa;  `disabled` &#xa;  `updated_on`" style="text;whiteSpace=wrap;fontSize=13;" parent="aM84LzSGUawsXzDRVU1t-102" vertex="1">
          <mxGeometry y="30" width="190" height="140" as="geometry" />
        </mxCell>
        <mxCell id="aM84LzSGUawsXzDRVU1t-107" value="&lt;div style=&quot;text-align: left;&quot;&gt;`gr_site_roles`&lt;br&gt;&lt;/div&gt;" style="swimlane;whiteSpace=wrap;html=1;" parent="1" vertex="1">
          <mxGeometry x="330" y="110" width="170" height="145" as="geometry" />
        </mxCell>
        <mxCell id="aM84LzSGUawsXzDRVU1t-106" value="`site_role_id` &#xa;  `string_constant` &#xa;  `permissions` &#xa;  `site_role_attribute` &#xa;  `role_hierarchy`&#xa;  `disabled`&#xa;  `updated_on`" style="text;whiteSpace=wrap;fontSize=13;" parent="aM84LzSGUawsXzDRVU1t-107" vertex="1">
          <mxGeometry x="10" y="25" width="150" height="120" as="geometry" />
        </mxCell>
        <mxCell id="aM84LzSGUawsXzDRVU1t-110" value="&lt;div style=&quot;text-align: left;&quot;&gt;`gr_site_users`&lt;br&gt;&lt;/div&gt;" style="swimlane;whiteSpace=wrap;html=1;" parent="1" vertex="1">
          <mxGeometry x="890" y="-160" width="200" height="530" as="geometry" />
        </mxCell>
        <mxCell id="aM84LzSGUawsXzDRVU1t-109" value="`user_id`                              PK&#xa;  `display_name` &#xa;  `username` &#xa;  `email_address` &#xa;  `unverified_email_address` &#xa;  `phone_number` &#xa;  `phone_verified` &#xa;  `verification_code` &#xa;  `one_time_pin` &#xa;  `otp_generated_on` &#xa;  `password` &#xa;  `encrypt_type`&#xa;  `salt` &#xa;  `site_role_id` &#xa;  `previous_site_role_id` &#xa;  `profile_picture`&#xa;  `profile_bg_image`&#xa;  `profile_cover_pic` &#xa;  `online_status` &#xa;  `stay_online` &#xa;  `approved` &#xa;  `geo_latitude` &#xa;  `geo_longitude` &#xa;  `total_friends` &#xa;  `social_login_provider_id` &#xa;  `access_token` &#xa;  `token_generated_on`&#xa;  `created_on` &#xa;  `updated_on` &#xa;  `last_seen_on`&#xa;  `last_login_session`" style="text;whiteSpace=wrap;fontSize=13;" parent="aM84LzSGUawsXzDRVU1t-110" vertex="1">
          <mxGeometry x="10" y="30" width="190" height="470" as="geometry" />
        </mxCell>
        <mxCell id="aM84LzSGUawsXzDRVU1t-113" value="&lt;div style=&quot;text-align: left;&quot;&gt;`gr_site_users_blacklist`&lt;br style=&quot;font-size: 13px;&quot;&gt;&lt;/div&gt;" style="swimlane;whiteSpace=wrap;html=1;fontSize=13;" parent="1" vertex="1">
          <mxGeometry x="1520" y="-600" width="190" height="145" as="geometry" />
        </mxCell>
        <mxCell id="aM84LzSGUawsXzDRVU1t-112" value="`user_blacklist_id`           PK       &#xa;  `user_id` &#xa;  `blacklisted_user_id` &#xa;  `ignore` &#xa;  `block` &#xa;  `updated_on`" style="text;whiteSpace=wrap;fontSize=13;" parent="aM84LzSGUawsXzDRVU1t-113" vertex="1">
          <mxGeometry y="35" width="190" height="110" as="geometry" />
        </mxCell>
        <mxCell id="aM84LzSGUawsXzDRVU1t-116" value="&lt;div style=&quot;text-align: left;&quot;&gt;`gr_site_users_device_logs`&lt;br&gt;&lt;/div&gt;" style="swimlane;whiteSpace=wrap;html=1;" parent="1" vertex="1">
          <mxGeometry x="900" y="-580" width="170" height="145" as="geometry" />
        </mxCell>
        <mxCell id="aM84LzSGUawsXzDRVU1t-115" value="`access_log_id`          PK   &#xa;  `login_session_id` &#xa;  `user_id` &#xa;  `ip_address`&#xa;  `user_agent`&#xa;  `created_on`" style="text;whiteSpace=wrap;fontSize=13;" parent="aM84LzSGUawsXzDRVU1t-116" vertex="1">
          <mxGeometry y="35" width="160" height="110" as="geometry" />
        </mxCell>
        <mxCell id="aM84LzSGUawsXzDRVU1t-119" value="&lt;div style=&quot;text-align: left;&quot;&gt;gr_site_users_membership&lt;br&gt;&lt;/div&gt;" style="swimlane;whiteSpace=wrap;html=1;" parent="1" vertex="1">
          <mxGeometry x="970" y="1960" width="190" height="145" as="geometry" />
        </mxCell>
        <mxCell id="aM84LzSGUawsXzDRVU1t-118" value="`membership_info_id` &#xa;  `user_id`&#xa;  `membership_package_id` &#xa;  `started_on` &#xa;  `expiring_on` &#xa;  `non_expiring` &#xa;  `updated_on`" style="text;whiteSpace=wrap;fontSize=13;" parent="aM84LzSGUawsXzDRVU1t-119" vertex="1">
          <mxGeometry y="22.5" width="190" height="120" as="geometry" />
        </mxCell>
        <mxCell id="aM84LzSGUawsXzDRVU1t-121" value="&lt;div style=&quot;text-align: left;&quot;&gt;`gr_site_users_settings`&lt;/div&gt;" style="swimlane;whiteSpace=wrap;html=1;" parent="1" vertex="1">
          <mxGeometry x="2000" y="20" width="190" height="200" as="geometry" />
        </mxCell>
        <mxCell id="aM84LzSGUawsXzDRVU1t-122" value=" `user_setting_id`                PK&#xa;  `user_id`&#xa;  `offline_mode` &#xa;  `time_zone` &#xa;  `language_id` &#xa;  `notification_tone` &#xa;  `disable_private_messages` &#xa;  `deactivated` &#xa;  `color_scheme` &#xa;  `updated_on` " style="text;whiteSpace=wrap;fontSize=13;" parent="aM84LzSGUawsXzDRVU1t-121" vertex="1">
          <mxGeometry y="30" width="190" height="120" as="geometry" />
        </mxCell>
        <mxCell id="aM84LzSGUawsXzDRVU1t-124" value="&lt;div style=&quot;text-align: left;&quot;&gt;`gr_social_login_providers`&lt;br&gt;&lt;/div&gt;" style="swimlane;whiteSpace=wrap;html=1;" parent="1" vertex="1">
          <mxGeometry x="1430" y="-260" width="220" height="200" as="geometry" />
        </mxCell>
        <mxCell id="aM84LzSGUawsXzDRVU1t-123" value="`social_login_provider_id`         PK&#xa;  `identity_provider` &#xa;  `app_id` &#xa;  `app_key` &#xa;  `secret_key` &#xa;  `open_in_popup` &#xa;  `create_user` &#xa;  `disabled` &#xa;  `updated_on`" style="text;whiteSpace=wrap;fontSize=13;" parent="aM84LzSGUawsXzDRVU1t-124" vertex="1">
          <mxGeometry x="10" y="30" width="210" height="150" as="geometry" />
        </mxCell>
        <mxCell id="aM84LzSGUawsXzDRVU1t-127" value="&lt;div style=&quot;text-align: left;&quot;&gt;`gr_typing_status`&lt;br&gt;&lt;/div&gt;" style="swimlane;whiteSpace=wrap;html=1;" parent="1" vertex="1">
          <mxGeometry x="1970" y="-292.5" width="210" height="132.5" as="geometry" />
        </mxCell>
        <mxCell id="aM84LzSGUawsXzDRVU1t-126" value="`user_input_log_id`                       PK&#xa;  `group_id` &#xa;  `private_conversation_id` &#xa;  `user_id` &#xa;  `created_on` &#xa;  `updated_on`" style="text;whiteSpace=wrap;" parent="aM84LzSGUawsXzDRVU1t-127" vertex="1">
          <mxGeometry x="5" y="22.5" width="205" height="110" as="geometry" />
        </mxCell>
        <mxCell id="aM84LzSGUawsXzDRVU1t-129" value="&lt;div style=&quot;text-align: left;&quot;&gt;&lt;span style=&quot;background-color: initial;&quot;&gt;`gr_audio_player`&lt;/span&gt;&lt;/div&gt;" style="swimlane;whiteSpace=wrap;html=1;fontSize=13;" parent="1" vertex="1">
          <mxGeometry x="-670" y="320" width="150" height="190" as="geometry" />
        </mxCell>
        <mxCell id="aM84LzSGUawsXzDRVU1t-130" value=" `audio_content_id`    PK &#xa;  `audio_title`&#xa;  `audio_description` &#xa;  `audio_type` &#xa;  `radio_stream_url` &#xa;  `now_playing_info_url` &#xa;  `streaming_server`&#xa;  `disabled` &#xa;  `updated_on` " style="text;whiteSpace=wrap;fontSize=13;" parent="aM84LzSGUawsXzDRVU1t-129" vertex="1">
          <mxGeometry y="30" width="150" height="160" as="geometry" />
        </mxCell>
        <mxCell id="aM84LzSGUawsXzDRVU1t-132" value="gr_css_variables`&amp;nbsp;" style="swimlane;whiteSpace=wrap;html=1;" parent="1" vertex="1">
          <mxGeometry x="-670" y="555" width="150" height="120" as="geometry" />
        </mxCell>
        <mxCell id="aM84LzSGUawsXzDRVU1t-131" value="`css_variable_id` &#xa;  `css_variable` &#xa;  `css_variable_value`&#xa;  `color_scheme` &#xa;  `updated_on`" style="text;whiteSpace=wrap;fontSize=13;" parent="aM84LzSGUawsXzDRVU1t-132" vertex="1">
          <mxGeometry y="22.5" width="150" height="100" as="geometry" />
        </mxCell>
        <mxCell id="aM84LzSGUawsXzDRVU1t-136" value="&lt;div style=&quot;text-align: left;&quot;&gt;`gr_custom_fields`&lt;br&gt;&lt;/div&gt;" style="swimlane;whiteSpace=wrap;html=1;" parent="1" vertex="1">
          <mxGeometry x="10" y="1280" width="190" height="280" as="geometry" />
        </mxCell>
        <mxCell id="aM84LzSGUawsXzDRVU1t-135" value="`field_id`&#xa;  `string_constant` &#xa;  `field_category` &#xa;  `field_type` &#xa;  `show_on_signup` &#xa;  `show_on_guest_login` &#xa;  `required` &#xa;  `minimum_length` &#xa;  `maximum_length`&#xa;  `show_on_info_page` &#xa;  `editable_only_once` &#xa;  `searchable_field`&#xa;  `disabled` &#xa;  `order_by` &#xa;  `updated_on`" style="text;whiteSpace=wrap;fontSize=13;" parent="aM84LzSGUawsXzDRVU1t-136" vertex="1">
          <mxGeometry x="10" y="30" width="170" height="240" as="geometry" />
        </mxCell>
        <mxCell id="aM84LzSGUawsXzDRVU1t-139" value="`gr_custom_fields_values`" style="swimlane;whiteSpace=wrap;html=1;" parent="1" vertex="1">
          <mxGeometry x="280" y="1230" width="150" height="140" as="geometry" />
        </mxCell>
        <mxCell id="aM84LzSGUawsXzDRVU1t-138" value="`field_value_id`&#xa;  `field_id` &#xa;  `group_id`&#xa;  `user_id`&#xa;  `field_value` &#xa;  `updated_on`" style="text;whiteSpace=wrap;fontSize=13;" parent="aM84LzSGUawsXzDRVU1t-139" vertex="1">
          <mxGeometry x="10" y="30" width="110" height="110" as="geometry" />
        </mxCell>
        <mxCell id="aM84LzSGUawsXzDRVU1t-142" value="&lt;div style=&quot;text-align: left;&quot;&gt;`gr_custom_menu_items`&lt;br&gt;&lt;/div&gt;" style="swimlane;whiteSpace=wrap;html=1;" parent="1" vertex="1">
          <mxGeometry x="515" y="1140" width="225" height="280" as="geometry" />
        </mxCell>
        <mxCell id="aM84LzSGUawsXzDRVU1t-141" value="`menu_item_id`                                PK&#xa;  `string_constant` &#xa;  `menu_icon_class`&#xa;  `page_id` &#xa;  `web_address` &#xa;  `link_target` &#xa;  `show_on_landing_page_header` &#xa;  `show_on_landing_page_footer` &#xa;  `show_on_entry_page` &#xa;  `show_on_chat_page` &#xa;  `show_on_chat_page_top` &#xa;  `menu_item_order` &#xa;  `menu_item_visibility` &#xa;  `disabled` &#xa;  `created_on`&#xa;  `updated_on`" style="text;whiteSpace=wrap;" parent="aM84LzSGUawsXzDRVU1t-142" vertex="1">
          <mxGeometry x="5" y="30" width="220" height="250" as="geometry" />
        </mxCell>
        <mxCell id="aM84LzSGUawsXzDRVU1t-145" value="&lt;div style=&quot;text-align: left;&quot;&gt;`gr_custom_pages`&lt;br&gt;&lt;/div&gt;" style="swimlane;whiteSpace=wrap;html=1;" parent="1" vertex="1">
          <mxGeometry x="830" y="1170" width="190" height="190" as="geometry" />
        </mxCell>
        <mxCell id="aM84LzSGUawsXzDRVU1t-144" value="`page_id`                             PK&#xa;  `string_constant`&#xa;  `slug` &#xa;  `meta_title` &#xa;  `meta_description`&#xa;  `disabled` &#xa;  `who_all_can_view_page` &#xa;  `created_on` &#xa;  `updated_on`" style="text;whiteSpace=wrap;fontSize=13;" parent="aM84LzSGUawsXzDRVU1t-145" vertex="1">
          <mxGeometry y="35" width="180" height="150" as="geometry" />
        </mxCell>
        <mxCell id="aM84LzSGUawsXzDRVU1t-147" value="" style="edgeStyle=entityRelationEdgeStyle;fontSize=12;html=1;endArrow=ERmandOne;startArrow=ERmandOne;rounded=0;exitX=1;exitY=1;exitDx=0;exitDy=0;entryX=-0.018;entryY=0.314;entryDx=0;entryDy=0;entryPerimeter=0;" parent="1" source="aM84LzSGUawsXzDRVU1t-109" target="aM84LzSGUawsXzDRVU1t-3" edge="1">
          <mxGeometry width="100" height="100" relative="1" as="geometry">
            <mxPoint x="1100" y="160" as="sourcePoint" />
            <mxPoint x="1180" y="60" as="targetPoint" />
            <Array as="points">
              <mxPoint x="1100" y="310" />
            </Array>
          </mxGeometry>
        </mxCell>
        <mxCell id="aM84LzSGUawsXzDRVU1t-148" value="" style="edgeStyle=entityRelationEdgeStyle;fontSize=12;html=1;endArrow=ERmandOne;startArrow=ERmandOne;rounded=0;entryX=0;entryY=0.75;entryDx=0;entryDy=0;exitX=1.001;exitY=0.288;exitDx=0;exitDy=0;exitPerimeter=0;" parent="1" source="aM84LzSGUawsXzDRVU1t-109" target="aM84LzSGUawsXzDRVU1t-116" edge="1">
          <mxGeometry width="100" height="100" relative="1" as="geometry">
            <mxPoint x="1080" y="-10" as="sourcePoint" />
            <mxPoint x="1180" y="-110" as="targetPoint" />
          </mxGeometry>
        </mxCell>
        <mxCell id="aM84LzSGUawsXzDRVU1t-151" value="" style="edgeStyle=entityRelationEdgeStyle;fontSize=12;html=1;endArrow=ERoneToMany;rounded=0;exitX=1;exitY=0.25;exitDx=0;exitDy=0;entryX=0;entryY=0.25;entryDx=0;entryDy=0;" parent="1" source="aM84LzSGUawsXzDRVU1t-43" target="aM84LzSGUawsXzDRVU1t-110" edge="1">
          <mxGeometry width="100" height="100" relative="1" as="geometry">
            <mxPoint x="770" y="-210" as="sourcePoint" />
            <mxPoint x="890" y="-80" as="targetPoint" />
          </mxGeometry>
        </mxCell>
        <mxCell id="aM84LzSGUawsXzDRVU1t-152" value="" style="edgeStyle=entityRelationEdgeStyle;fontSize=12;html=1;endArrow=ERoneToMany;rounded=0;entryX=0;entryY=0.25;entryDx=0;entryDy=0;exitX=1;exitY=0.5;exitDx=0;exitDy=0;" parent="1" source="aM84LzSGUawsXzDRVU1t-16" target="aM84LzSGUawsXzDRVU1t-43" edge="1">
          <mxGeometry width="100" height="100" relative="1" as="geometry">
            <mxPoint x="400" y="-130" as="sourcePoint" />
            <mxPoint x="500" y="-230" as="targetPoint" />
          </mxGeometry>
        </mxCell>
        <mxCell id="aM84LzSGUawsXzDRVU1t-153" value="" style="edgeStyle=entityRelationEdgeStyle;fontSize=12;html=1;endArrow=ERoneToMany;rounded=0;entryX=-0.02;entryY=0.181;entryDx=0;entryDy=0;entryPerimeter=0;exitX=1;exitY=0.25;exitDx=0;exitDy=0;" parent="1" source="aM84LzSGUawsXzDRVU1t-27" target="aM84LzSGUawsXzDRVU1t-45" edge="1">
          <mxGeometry width="100" height="100" relative="1" as="geometry">
            <mxPoint x="-170" y="-290" as="sourcePoint" />
            <mxPoint x="-100" y="-50" as="targetPoint" />
          </mxGeometry>
        </mxCell>
        <mxCell id="aM84LzSGUawsXzDRVU1t-154" value="" style="edgeStyle=entityRelationEdgeStyle;fontSize=12;html=1;endArrow=ERoneToMany;rounded=0;entryX=0;entryY=0.25;entryDx=0;entryDy=0;exitX=0.995;exitY=0.366;exitDx=0;exitDy=0;exitPerimeter=0;" parent="1" source="aM84LzSGUawsXzDRVU1t-109" target="aM84LzSGUawsXzDRVU1t-84" edge="1">
          <mxGeometry width="100" height="100" relative="1" as="geometry">
            <mxPoint x="1210" y="40" as="sourcePoint" />
            <mxPoint x="1310" y="-60" as="targetPoint" />
          </mxGeometry>
        </mxCell>
        <mxCell id="aM84LzSGUawsXzDRVU1t-155" value="" style="edgeStyle=entityRelationEdgeStyle;fontSize=12;html=1;endArrow=ERoneToMany;rounded=0;entryX=0;entryY=0.25;entryDx=0;entryDy=0;exitX=1.016;exitY=0.127;exitDx=0;exitDy=0;exitPerimeter=0;" parent="1" source="aM84LzSGUawsXzDRVU1t-84" target="aM84LzSGUawsXzDRVU1t-81" edge="1">
          <mxGeometry width="100" height="100" relative="1" as="geometry">
            <mxPoint x="1610" y="-40" as="sourcePoint" />
            <mxPoint x="1710" y="-140" as="targetPoint" />
          </mxGeometry>
        </mxCell>
        <mxCell id="aM84LzSGUawsXzDRVU1t-156" value="" style="edgeStyle=entityRelationEdgeStyle;fontSize=12;html=1;endArrow=ERoneToMany;rounded=0;entryX=0;entryY=0.25;entryDx=0;entryDy=0;exitX=1.017;exitY=0.822;exitDx=0;exitDy=0;exitPerimeter=0;" parent="1" source="aM84LzSGUawsXzDRVU1t-109" target="aM84LzSGUawsXzDRVU1t-122" edge="1">
          <mxGeometry width="100" height="100" relative="1" as="geometry">
            <mxPoint x="1200" y="210" as="sourcePoint" />
            <mxPoint x="1300" y="110" as="targetPoint" />
          </mxGeometry>
        </mxCell>
        <mxCell id="aM84LzSGUawsXzDRVU1t-157" value="" style="edgeStyle=entityRelationEdgeStyle;fontSize=12;html=1;endArrow=ERoneToMany;rounded=0;entryX=0;entryY=0.25;entryDx=0;entryDy=0;exitX=1.01;exitY=0.914;exitDx=0;exitDy=0;exitPerimeter=0;" parent="1" source="aM84LzSGUawsXzDRVU1t-109" target="aM84LzSGUawsXzDRVU1t-48" edge="1">
          <mxGeometry width="100" height="100" relative="1" as="geometry">
            <mxPoint x="1180" y="330" as="sourcePoint" />
            <mxPoint x="1280" y="230" as="targetPoint" />
            <Array as="points">
              <mxPoint x="1150" y="140" />
              <mxPoint x="1190" y="210" />
            </Array>
          </mxGeometry>
        </mxCell>
        <mxCell id="aM84LzSGUawsXzDRVU1t-159" value="" style="edgeStyle=entityRelationEdgeStyle;fontSize=12;html=1;endArrow=ERoneToMany;rounded=0;exitX=1.017;exitY=0.78;exitDx=0;exitDy=0;exitPerimeter=0;entryX=0;entryY=0.25;entryDx=0;entryDy=0;" parent="1" source="aM84LzSGUawsXzDRVU1t-109" target="aM84LzSGUawsXzDRVU1t-54" edge="1">
          <mxGeometry width="100" height="100" relative="1" as="geometry">
            <mxPoint x="1410" y="210" as="sourcePoint" />
            <mxPoint x="1510" y="110" as="targetPoint" />
            <Array as="points">
              <mxPoint x="1380" y="160" />
            </Array>
          </mxGeometry>
        </mxCell>
        <mxCell id="aM84LzSGUawsXzDRVU1t-160" value="" style="edgeStyle=entityRelationEdgeStyle;fontSize=12;html=1;endArrow=ERmany;startArrow=ERmany;rounded=0;entryX=0;entryY=0.5;entryDx=0;entryDy=0;exitX=1;exitY=0.5;exitDx=0;exitDy=0;" parent="1" source="aM84LzSGUawsXzDRVU1t-10" target="aM84LzSGUawsXzDRVU1t-110" edge="1">
          <mxGeometry width="100" height="100" relative="1" as="geometry">
            <mxPoint x="720" y="290" as="sourcePoint" />
            <mxPoint x="820" y="190" as="targetPoint" />
          </mxGeometry>
        </mxCell>
        <mxCell id="aM84LzSGUawsXzDRVU1t-161" value="" style="edgeStyle=entityRelationEdgeStyle;fontSize=12;html=1;endArrow=ERmany;startArrow=ERmany;rounded=0;entryX=0;entryY=0.5;entryDx=0;entryDy=0;" parent="1" source="aM84LzSGUawsXzDRVU1t-74" target="aM84LzSGUawsXzDRVU1t-27" edge="1">
          <mxGeometry width="100" height="100" relative="1" as="geometry">
            <mxPoint x="80" y="10" as="sourcePoint" />
            <mxPoint x="180" y="-90" as="targetPoint" />
          </mxGeometry>
        </mxCell>
        <mxCell id="aM84LzSGUawsXzDRVU1t-162" value="" style="edgeStyle=entityRelationEdgeStyle;fontSize=12;html=1;endArrow=ERmany;startArrow=ERmany;rounded=0;entryX=0;entryY=0.068;entryDx=0;entryDy=0;entryPerimeter=0;exitX=1;exitY=0.5;exitDx=0;exitDy=0;" parent="1" source="aM84LzSGUawsXzDRVU1t-40" target="aM84LzSGUawsXzDRVU1t-16" edge="1">
          <mxGeometry width="100" height="100" relative="1" as="geometry">
            <mxPoint x="60" y="-210" as="sourcePoint" />
            <mxPoint x="160" y="-310" as="targetPoint" />
          </mxGeometry>
        </mxCell>
        <mxCell id="aM84LzSGUawsXzDRVU1t-163" value="" style="edgeStyle=entityRelationEdgeStyle;fontSize=12;html=1;endArrow=ERoneToMany;rounded=0;entryX=0;entryY=0.25;entryDx=0;entryDy=0;exitX=1;exitY=0.5;exitDx=0;exitDy=0;" parent="1" source="aM84LzSGUawsXzDRVU1t-62" target="aM84LzSGUawsXzDRVU1t-60" edge="1">
          <mxGeometry width="100" height="100" relative="1" as="geometry">
            <mxPoint x="820" y="980" as="sourcePoint" />
            <mxPoint x="920" y="880" as="targetPoint" />
            <Array as="points">
              <mxPoint x="1180" y="760" />
              <mxPoint x="890" y="930" />
            </Array>
          </mxGeometry>
        </mxCell>
        <mxCell id="aM84LzSGUawsXzDRVU1t-166" value="" style="edgeStyle=entityRelationEdgeStyle;fontSize=12;html=1;endArrow=ERoneToMany;rounded=0;exitX=1;exitY=0.5;exitDx=0;exitDy=0;entryX=0;entryY=0.25;entryDx=0;entryDy=0;" parent="1" source="xByyXgjnT6tnBIrzNjOe-21" target="xByyXgjnT6tnBIrzNjOe-26" edge="1">
          <mxGeometry width="100" height="100" relative="1" as="geometry">
            <mxPoint x="700" y="650" as="sourcePoint" />
            <mxPoint x="800" y="550" as="targetPoint" />
          </mxGeometry>
        </mxCell>
        <mxCell id="aM84LzSGUawsXzDRVU1t-167" value="" style="edgeStyle=entityRelationEdgeStyle;fontSize=12;html=1;endArrow=ERoneToMany;rounded=0;entryX=0.01;entryY=0.647;entryDx=0;entryDy=0;entryPerimeter=0;" parent="1" target="aM84LzSGUawsXzDRVU1t-105" edge="1">
          <mxGeometry width="100" height="100" relative="1" as="geometry">
            <mxPoint x="1090" y="-60" as="sourcePoint" />
            <mxPoint x="1230" y="-140" as="targetPoint" />
            <Array as="points">
              <mxPoint x="1150" y="-40" />
              <mxPoint x="1290" y="-130" />
            </Array>
          </mxGeometry>
        </mxCell>
        <mxCell id="aM84LzSGUawsXzDRVU1t-168" value="" style="edgeStyle=entityRelationEdgeStyle;fontSize=12;html=1;endArrow=ERoneToMany;rounded=0;entryX=0;entryY=0.5;entryDx=0;entryDy=0;exitX=1.03;exitY=0.091;exitDx=0;exitDy=0;exitPerimeter=0;" parent="1" source="aM84LzSGUawsXzDRVU1t-109" target="aM84LzSGUawsXzDRVU1t-113" edge="1">
          <mxGeometry width="100" height="100" relative="1" as="geometry">
            <mxPoint x="1220" y="-110" as="sourcePoint" />
            <mxPoint x="1320" y="-210" as="targetPoint" />
            <Array as="points">
              <mxPoint x="1190" y="-90" />
              <mxPoint x="1130" y="-60" />
              <mxPoint x="1360" y="-230" />
            </Array>
          </mxGeometry>
        </mxCell>
        <mxCell id="kCxaixW85ZACDbbkVmKa-1" value="" style="edgeStyle=entityRelationEdgeStyle;fontSize=12;html=1;endArrow=ERoneToMany;rounded=0;exitX=1.01;exitY=0.869;exitDx=0;exitDy=0;exitPerimeter=0;entryX=0;entryY=0.5;entryDx=0;entryDy=0;" edge="1" parent="1" source="aM84LzSGUawsXzDRVU1t-109" target="aM84LzSGUawsXzDRVU1t-88">
          <mxGeometry width="100" height="100" relative="1" as="geometry">
            <mxPoint x="1290" y="430" as="sourcePoint" />
            <mxPoint x="1790" y="180" as="targetPoint" />
            <Array as="points">
              <mxPoint x="1790" y="190" />
            </Array>
          </mxGeometry>
        </mxCell>
        <mxCell id="kCxaixW85ZACDbbkVmKa-3" value="" style="edgeStyle=entityRelationEdgeStyle;fontSize=12;html=1;endArrow=ERoneToMany;rounded=0;exitX=1;exitY=0.25;exitDx=0;exitDy=0;" edge="1" parent="1" source="aM84LzSGUawsXzDRVU1t-94">
          <mxGeometry width="100" height="100" relative="1" as="geometry">
            <mxPoint x="620" y="670" as="sourcePoint" />
            <mxPoint x="890" y="330" as="targetPoint" />
          </mxGeometry>
        </mxCell>
        <mxCell id="kCxaixW85ZACDbbkVmKa-4" value="" style="edgeStyle=entityRelationEdgeStyle;fontSize=12;html=1;endArrow=ERoneToMany;rounded=0;entryX=0;entryY=0.25;entryDx=0;entryDy=0;exitX=1.023;exitY=0.678;exitDx=0;exitDy=0;exitPerimeter=0;" edge="1" parent="1" source="aM84LzSGUawsXzDRVU1t-109" target="aM84LzSGUawsXzDRVU1t-102">
          <mxGeometry width="100" height="100" relative="1" as="geometry">
            <mxPoint x="1220" y="200" as="sourcePoint" />
            <mxPoint x="1320" y="100" as="targetPoint" />
          </mxGeometry>
        </mxCell>
        <mxCell id="kCxaixW85ZACDbbkVmKa-6" value="" style="edgeStyle=entityRelationEdgeStyle;fontSize=12;html=1;endArrow=ERoneToMany;rounded=0;entryX=0;entryY=0.5;entryDx=0;entryDy=0;exitX=1;exitY=0.75;exitDx=0;exitDy=0;" edge="1" parent="1" source="aM84LzSGUawsXzDRVU1t-84" target="aM84LzSGUawsXzDRVU1t-127">
          <mxGeometry width="100" height="100" relative="1" as="geometry">
            <mxPoint x="1170" y="-20" as="sourcePoint" />
            <mxPoint x="1270" y="-120" as="targetPoint" />
          </mxGeometry>
        </mxCell>
        <mxCell id="kCxaixW85ZACDbbkVmKa-7" value="" style="edgeStyle=entityRelationEdgeStyle;fontSize=12;html=1;endArrow=ERoneToMany;rounded=0;entryX=0;entryY=0.25;entryDx=0;entryDy=0;exitX=1;exitY=0.688;exitDx=0;exitDy=0;exitPerimeter=0;" edge="1" parent="1" source="aM84LzSGUawsXzDRVU1t-141" target="aM84LzSGUawsXzDRVU1t-144">
          <mxGeometry width="100" height="100" relative="1" as="geometry">
            <mxPoint x="440" y="1420" as="sourcePoint" />
            <mxPoint x="600" y="1250" as="targetPoint" />
          </mxGeometry>
        </mxCell>
        <mxCell id="kCxaixW85ZACDbbkVmKa-8" value="" style="edgeStyle=entityRelationEdgeStyle;fontSize=12;html=1;endArrow=ERoneToMany;rounded=0;entryX=0;entryY=0.5;entryDx=0;entryDy=0;exitX=1.007;exitY=0.653;exitDx=0;exitDy=0;exitPerimeter=0;" edge="1" parent="1" source="aM84LzSGUawsXzDRVU1t-7" target="aM84LzSGUawsXzDRVU1t-91">
          <mxGeometry width="100" height="100" relative="1" as="geometry">
            <mxPoint x="440" y="1970" as="sourcePoint" />
            <mxPoint x="410" y="1980" as="targetPoint" />
          </mxGeometry>
        </mxCell>
        <mxCell id="kCxaixW85ZACDbbkVmKa-10" value="" style="edgeStyle=entityRelationEdgeStyle;fontSize=12;html=1;endArrow=ERmany;startArrow=ERmany;rounded=0;entryX=0;entryY=0.75;entryDx=0;entryDy=0;exitX=1;exitY=0.5;exitDx=0;exitDy=0;" edge="1" parent="1" source="aM84LzSGUawsXzDRVU1t-107" target="aM84LzSGUawsXzDRVU1t-110">
          <mxGeometry width="100" height="100" relative="1" as="geometry">
            <mxPoint x="470" y="50" as="sourcePoint" />
            <mxPoint x="570" y="-50" as="targetPoint" />
          </mxGeometry>
        </mxCell>
        <mxCell id="kCxaixW85ZACDbbkVmKa-13" value="" style="edgeStyle=entityRelationEdgeStyle;fontSize=12;html=1;endArrow=ERoneToMany;rounded=0;entryX=0;entryY=0.75;entryDx=0;entryDy=0;exitX=1;exitY=0.25;exitDx=0;exitDy=0;" edge="1" parent="1" source="aM84LzSGUawsXzDRVU1t-60" target="xByyXgjnT6tnBIrzNjOe-28">
          <mxGeometry width="100" height="100" relative="1" as="geometry">
            <mxPoint x="1710" y="1500" as="sourcePoint" />
            <mxPoint x="1810" y="1400" as="targetPoint" />
          </mxGeometry>
        </mxCell>
        <mxCell id="kCxaixW85ZACDbbkVmKa-16" value="" style="edgeStyle=entityRelationEdgeStyle;fontSize=12;html=1;endArrow=ERoneToMany;rounded=0;entryX=0;entryY=0.5;entryDx=0;entryDy=0;exitX=1.016;exitY=0.433;exitDx=0;exitDy=0;exitPerimeter=0;" edge="1" parent="1" source="aM84LzSGUawsXzDRVU1t-75" target="aM84LzSGUawsXzDRVU1t-78">
          <mxGeometry width="100" height="100" relative="1" as="geometry">
            <mxPoint x="1440" y="980" as="sourcePoint" />
            <mxPoint x="1680" y="1380" as="targetPoint" />
            <Array as="points">
              <mxPoint x="1490" y="1510" />
              <mxPoint x="1460" y="970" />
              <mxPoint x="1890" y="1770" />
              <mxPoint x="1840" y="1780" />
              <mxPoint x="1670" y="1730" />
              <mxPoint x="1690" y="1740" />
            </Array>
          </mxGeometry>
        </mxCell>
        <mxCell id="kCxaixW85ZACDbbkVmKa-18" value="" style="edgeStyle=entityRelationEdgeStyle;fontSize=12;html=1;endArrow=ERoneToMany;rounded=0;entryX=0;entryY=0.5;entryDx=0;entryDy=0;exitX=1.009;exitY=0.44;exitDx=0;exitDy=0;exitPerimeter=0;" edge="1" parent="1" source="aM84LzSGUawsXzDRVU1t-109" target="aM84LzSGUawsXzDRVU1t-124">
          <mxGeometry width="100" height="100" relative="1" as="geometry">
            <mxPoint x="1050" y="1600" as="sourcePoint" />
            <mxPoint x="1150" y="1500" as="targetPoint" />
          </mxGeometry>
        </mxCell>
      </root>
    </mxGraphModel>
  </diagram>
</mxfile>
